<svg width="882" height="675" viewBox="0 0 882 675" fill="none" xmlns="http://www.w3.org/2000/svg">
<g clip-path="url(#clip0)">
<path d="M181.579 390.433C181.579 390.433 204.706 391.975 208.817 388.891C212.929 385.808 230.402 393.003 231.944 397.114C233.486 401.226 207.275 401.74 203.164 401.74C199.053 401.74 179.523 407.907 179.523 407.907L181.579 390.433Z" fill="#FBBEBE"/>
<path d="M240.222 338.82C232.216 340.894 224.761 344.696 218.382 349.959C212.003 355.222 206.854 361.818 203.297 369.285C199.74 376.751 197.862 384.905 197.794 393.175C197.727 401.445 199.471 409.629 202.905 417.153L254.429 393.647L240.222 338.82Z" fill="#339F4C"/>
<path d="M266.589 402.418L215.064 425.924C219.539 435.732 226.721 444.06 235.766 449.928C244.81 455.796 255.342 458.961 266.123 459.05C276.904 459.14 287.486 456.15 296.627 450.433C305.767 444.715 313.086 436.507 317.723 426.774C322.36 417.041 324.122 406.186 322.803 395.486C321.484 384.785 317.138 374.684 310.275 366.368C303.413 358.053 294.32 351.868 284.065 348.542C273.809 345.216 262.818 344.886 252.381 347.591L266.589 402.418Z" fill="#339F4C"/>
<path d="M178.982 448.021L170.787 525.775C170.787 525.775 168.217 556.611 160.508 563.292C160.508 563.292 160.508 573.057 157.938 576.14L154.341 616.74C154.341 616.74 159.48 631.644 158.966 634.214C158.452 636.783 161.022 645.006 160.508 646.034C159.994 647.062 135.84 646.034 135.84 646.034L140.979 563.292L156.911 448.173L178.982 448.021Z" fill="#3C354C"/>
<path opacity="0.1" d="M178.982 448.021L170.787 525.775C170.787 525.775 168.217 556.611 160.508 563.292C160.508 563.292 160.508 573.057 157.938 576.14L154.341 616.74C154.341 616.74 159.48 631.644 158.966 634.214C158.452 636.783 161.022 645.006 160.508 646.034C159.994 647.062 135.84 646.034 135.84 646.034L140.979 563.292L156.911 448.173L178.982 448.021Z" fill="black"/>
<path d="M0 673.564H358.509" stroke="#3F3D56" stroke-miterlimit="10"/>
<path d="M351.509 613.032C351.509 613.032 562.509 490.032 834.509 613.032" stroke="#3F3D56" stroke-miterlimit="10"/>
<path d="M393.964 593.725C385.363 591.953 377.636 587.268 372.088 580.46C366.54 573.653 363.51 565.14 363.509 556.358V38.6417C363.509 33.6329 364.496 28.6731 366.413 24.0455C368.329 19.4179 371.139 15.2132 374.681 11.6715C378.222 8.12967 382.427 5.32017 387.055 3.40337C391.682 1.48656 396.642 0.5 401.651 0.5H784.368C789.376 0.499999 794.336 1.48657 798.964 3.40337C803.591 5.32017 807.796 8.12966 811.338 11.6714C814.88 15.2132 817.689 19.4179 819.606 24.0455C821.523 28.6731 822.509 33.6329 822.509 38.6417V556.358C822.509 565.763 819.034 574.836 812.753 581.835C806.472 588.835 797.826 593.267 788.476 594.281" stroke="#3F3D56" stroke-miterlimit="10"/>
<path d="M795.009 61.9706H387.009V533.029H795.009V61.9706Z" stroke="#3F3D56" stroke-miterlimit="10"/>
<path d="M593.009 41C598.532 41 603.009 36.5228 603.009 31C603.009 25.4772 598.532 21 593.009 21C587.486 21 583.009 25.4772 583.009 31C583.009 36.5228 587.486 41 593.009 41Z" stroke="#3F3D56" stroke-miterlimit="10"/>
<path d="M571.553 558.618C572.668 553.725 575.421 549.36 579.356 546.247C583.292 543.134 588.173 541.459 593.191 541.501C598.209 541.542 603.062 543.298 606.945 546.475C610.829 549.653 613.51 554.063 614.543 558.974" stroke="#3F3D56" stroke-miterlimit="10"/>
<path d="M341.39 95.9574C337.127 96.1981 333.016 97.6216 329.517 100.068C326.018 102.515 323.269 105.887 321.58 109.808C316.626 121.782 323.004 135.847 332.579 144.579C342.153 153.31 354.453 158.301 365.627 164.861C380.637 173.672 394.124 185.904 401.634 201.605C409.144 217.306 409.943 236.755 401.115 251.755C392.922 265.677 378.023 274.01 363.813 281.694" stroke="#3F3D56" stroke-miterlimit="10"/>
<path d="M354.009 105.5C363.674 105.5 371.509 101.694 371.509 97C371.509 92.3056 363.674 88.5 354.009 88.5C344.344 88.5 336.509 92.3056 336.509 97C336.509 101.694 344.344 105.5 354.009 105.5Z" fill="#57B894"/>
<path d="M368.009 161.5C377.674 161.5 385.509 157.694 385.509 153C385.509 148.306 377.674 144.5 368.009 144.5C358.344 144.5 350.509 148.306 350.509 153C350.509 157.694 358.344 161.5 368.009 161.5Z" fill="#57B894"/>
<path d="M336.009 170.5C345.674 170.5 353.509 166.694 353.509 162C353.509 157.306 345.674 153.5 336.009 153.5C326.344 153.5 318.509 157.306 318.509 162C318.509 166.694 326.344 170.5 336.009 170.5Z" fill="#57B894"/>
<path d="M386.009 217.5C395.674 217.5 403.509 213.694 403.509 209C403.509 204.306 395.674 200.5 386.009 200.5C376.344 200.5 368.509 204.306 368.509 209C368.509 213.694 376.344 217.5 386.009 217.5Z" fill="#57B894"/>
<path d="M421.009 217.5C430.674 217.5 438.509 213.694 438.509 209C438.509 204.306 430.674 200.5 421.009 200.5C411.344 200.5 403.509 204.306 403.509 209C403.509 213.694 411.344 217.5 421.009 217.5Z" fill="#57B894"/>
<path d="M811.852 439.323C807.883 439.547 804.054 440.872 800.796 443.151C797.538 445.429 794.979 448.569 793.405 452.221C788.793 463.371 794.732 476.468 803.647 484.598C812.563 492.729 824.016 497.377 834.422 503.485C848.399 511.69 860.958 523.08 867.951 537.701C874.945 552.322 875.688 570.432 867.468 584.4C859.838 597.364 845.964 605.124 832.733 612.28" stroke="#3F3D56" stroke-miterlimit="10"/>
<path d="M823.603 448.209C832.603 448.209 839.899 444.665 839.899 440.294C839.899 435.922 832.603 432.378 823.603 432.378C814.603 432.378 807.307 435.922 807.307 440.294C807.307 444.665 814.603 448.209 823.603 448.209Z" fill="#57B894"/>
<path d="M836.64 500.355C845.64 500.355 852.936 496.812 852.936 492.44C852.936 488.069 845.64 484.525 836.64 484.525C827.64 484.525 820.344 488.069 820.344 492.44C820.344 496.812 827.64 500.355 836.64 500.355Z" fill="#57B894"/>
<path d="M806.842 508.736C815.842 508.736 823.138 505.193 823.138 500.821C823.138 496.45 815.842 492.906 806.842 492.906C797.842 492.906 790.546 496.45 790.546 500.821C790.546 505.193 797.842 508.736 806.842 508.736Z" fill="#57B894"/>
<path d="M853.401 552.502C862.401 552.502 869.697 548.959 869.697 544.587C869.697 540.216 862.401 536.672 853.401 536.672C844.401 536.672 837.106 540.216 837.106 544.587C837.106 548.959 844.401 552.502 853.401 552.502Z" fill="#57B894"/>
<path d="M885.993 552.502C894.993 552.502 902.289 548.959 902.289 544.587C902.289 540.216 894.993 536.672 885.993 536.672C876.993 536.672 869.697 540.216 869.697 544.587C869.697 548.959 876.993 552.502 885.993 552.502Z" fill="#57B894"/>
<path d="M851.366 471.302C854.608 471.485 857.734 472.568 860.395 474.428C863.056 476.289 865.146 478.853 866.431 481.835C870.198 490.941 865.348 501.637 858.066 508.277C850.785 514.917 841.432 518.713 832.934 523.701C821.52 530.402 811.263 539.704 805.552 551.644C799.84 563.584 799.233 578.375 805.946 589.782C812.177 600.369 823.508 606.706 834.314 612.55" stroke="#3F3D56" stroke-miterlimit="10"/>
<path d="M841.769 478.559C849.119 478.559 855.078 475.665 855.078 472.095C855.078 468.525 849.119 465.631 841.769 465.631C834.419 465.631 828.461 468.525 828.461 472.095C828.461 475.665 834.419 478.559 841.769 478.559Z" fill="#57B894"/>
<path d="M831.123 521.145C838.473 521.145 844.431 518.251 844.431 514.681C844.431 511.111 838.473 508.217 831.123 508.217C823.773 508.217 817.814 511.111 817.814 514.681C817.814 518.251 823.773 521.145 831.123 521.145Z" fill="#57B894"/>
<path d="M855.458 527.99C862.808 527.99 868.766 525.096 868.766 521.526C868.766 517.956 862.808 515.062 855.458 515.062C848.108 515.062 842.149 517.956 842.149 521.526C842.149 525.096 848.108 527.99 855.458 527.99Z" fill="#57B894"/>
<path d="M817.434 563.732C824.784 563.732 830.742 560.838 830.742 557.268C830.742 553.698 824.784 550.804 817.434 550.804C810.084 550.804 804.126 553.698 804.126 557.268C804.126 560.838 810.084 563.732 817.434 563.732Z" fill="#57B894"/>
<path d="M790.817 563.732C798.167 563.732 804.126 560.838 804.126 557.268C804.126 553.698 798.167 550.804 790.817 550.804C783.467 550.804 777.509 553.698 777.509 557.268C777.509 560.838 783.467 563.732 790.817 563.732Z" fill="#57B894"/>
<path d="M455.509 161.032V387.032H720.509" stroke="#3F3D56" stroke-miterlimit="10"/>
<path d="M511.509 312.032H489.509V370.032H511.509V312.032Z" fill="#339F4C"/>
<path d="M556.509 292.032H534.509V370.032H556.509V292.032Z" fill="#339F4C"/>
<path d="M601.509 268.032H579.509V370.032H601.509V268.032Z" fill="#339F4C"/>
<path d="M646.509 225.032H624.509V370.032H646.509V225.032Z" fill="#339F4C"/>
<path d="M691.509 191.032H669.509V370.032H691.509V191.032Z" fill="#339F4C"/>
<path d="M504.509 305.032H482.509V363.032H504.509V305.032Z" stroke="#3F3D56" stroke-miterlimit="10"/>
<path d="M549.509 285.032H527.509V363.032H549.509V285.032Z" stroke="#3F3D56" stroke-miterlimit="10"/>
<path d="M594.509 261.032H572.509V363.032H594.509V261.032Z" stroke="#3F3D56" stroke-miterlimit="10"/>
<path d="M639.509 218.032H617.509V363.032H639.509V218.032Z" stroke="#3F3D56" stroke-miterlimit="10"/>
<path d="M684.509 184.032H662.509V363.032H684.509V184.032Z" stroke="#3F3D56" stroke-miterlimit="10"/>
<path d="M177.211 272.487C191.402 272.487 202.907 263.514 202.907 252.444C202.907 241.375 191.402 232.401 177.211 232.401C163.019 232.401 151.514 241.375 151.514 252.444C151.514 263.514 163.019 272.487 177.211 272.487Z" fill="#3F3D56"/>
<path d="M133.957 641.831C133.957 641.831 123.179 669.01 128.802 672.29C134.426 675.57 193.47 673.227 193.47 673.227C193.47 673.227 203.311 667.136 192.064 662.918C192.064 662.918 182.692 662.449 176.6 658.701C170.508 654.952 163.479 647.923 163.479 647.923C163.479 647.923 163.011 637.613 159.262 639.956C158.14 640.695 157.186 641.661 156.459 642.791C155.733 643.92 155.251 645.19 155.044 646.517L133.957 641.831Z" fill="#3F3D56"/>
<path opacity="0.1" d="M133.957 641.831C133.957 641.831 123.179 669.01 128.802 672.29C134.426 675.57 193.47 673.227 193.47 673.227C193.47 673.227 203.311 667.136 192.064 662.918C192.064 662.918 182.692 662.449 176.6 658.701C170.508 654.952 163.479 647.923 163.479 647.923C163.479 647.923 163.011 637.613 159.262 639.956C158.14 640.695 157.186 641.661 156.459 642.791C155.733 643.92 155.251 645.19 155.044 646.517L133.957 641.831Z" fill="black"/>
<path d="M117.338 638.145C117.338 638.145 105.518 667.953 111.685 671.551C117.852 675.148 182.607 672.578 182.607 672.578C182.607 672.578 193.399 665.897 181.065 661.272C181.065 661.272 170.787 660.758 164.106 656.647C157.425 652.535 149.716 644.826 149.716 644.826C149.716 644.826 149.202 633.52 145.09 636.09C143.86 636.9 142.813 637.959 142.017 639.198C141.22 640.437 140.692 641.829 140.465 643.285L117.338 638.145Z" fill="#3F3D56"/>
<path d="M165.134 446.965C165.134 446.965 159.48 499.899 156.911 511.206C155.295 518.651 154.264 526.212 153.827 533.818C153.827 533.818 153.313 550.264 148.688 554.889C147.335 556.229 146.271 557.833 145.564 559.601C144.857 561.37 144.521 563.264 144.576 565.168C144.576 565.168 139.951 617.074 142.521 623.242C145.09 629.409 148.579 637.421 146.009 641.532C143.44 645.644 114.255 642.771 114.255 639.687C114.255 636.604 114.255 634.034 112.713 632.492C111.171 630.95 112.713 621.186 112.713 621.186C112.713 621.186 106.546 575.446 112.199 562.084C117.852 548.722 120.422 512.234 120.422 512.234C120.422 512.234 116.311 470.606 111.171 463.925C106.032 457.244 112.199 433.603 112.199 433.603L165.134 446.965Z" fill="#3C354C"/>
<path d="M150.664 282.581C151.262 283.942 152.692 284.7 153.994 285.417C161.539 289.574 167.855 295.601 174.078 301.558C172.525 296.296 172.856 290.658 175.014 285.614C175.757 283.893 176.73 282.044 176.199 280.247C175.675 278.962 174.764 277.872 173.593 277.128C171.054 275.165 168.4 273.354 165.646 271.706C163.721 270.555 159.765 267.49 157.557 267.824C157.441 270.807 157.38 273.475 156.074 276.263C155.764 276.925 150.893 283.101 150.664 282.581Z" fill="#FBBEBE"/>
<path d="M176.954 289.19C188.591 289.19 198.025 279.756 198.025 268.119C198.025 256.482 188.591 247.048 176.954 247.048C165.317 247.048 155.883 256.482 155.883 268.119C155.883 279.756 165.317 289.19 176.954 289.19Z" fill="#FBBEBE"/>
<path d="M177.982 317.97C177.982 317.97 181.579 299.982 171.301 293.815C161.022 287.648 149.202 280.453 149.202 280.453C149.202 280.453 145.604 279.939 144.063 287.648C144.063 287.648 114.769 293.301 111.685 321.053C108.602 348.805 113.741 389.405 113.741 389.405C113.741 389.405 109.116 424.866 103.462 443.882C103.462 443.882 98.8371 447.993 119.394 441.826C139.951 435.659 175.926 459.299 175.926 459.299C175.926 459.299 179.523 455.702 179.523 453.132C179.523 450.563 183.635 435.659 183.635 435.659C183.635 435.659 187.232 372.446 188.774 365.251C190.316 358.056 182.607 318.998 177.982 317.97Z" fill="#3F3D56"/>
<path d="M171.988 270.29C173.254 269.588 174.673 269.21 176.12 269.189C177.569 269.167 178.984 268.746 180.208 267.971C182.199 266.443 182.345 263.49 183.801 261.446C185.909 258.487 190.114 258.131 193.744 258.279C195.964 258.37 198.355 258.502 200.225 257.302C202.144 256.069 203.014 253.746 203.661 251.559C204.427 248.972 204.922 245.809 203.025 243.89C201.708 242.558 199.63 242.295 198.167 241.125C196.65 239.912 196.026 237.937 195.201 236.179C194.263 234.036 192.779 232.177 190.897 230.788C188.137 228.87 184.613 228.44 181.252 228.476C177.892 228.512 174.518 228.954 171.183 228.542C168.45 228.204 165.726 227.295 163.002 227.698C159.531 228.211 156.66 230.829 154.95 233.893C153.24 236.956 152.506 240.453 151.795 243.888L149.86 253.232C149.259 256.13 148.657 259.105 149.12 262.028C150.08 268.087 155.439 272.904 155.808 279.028C156.16 277.337 156.927 275.759 158.038 274.437C159.15 273.115 160.572 272.09 162.178 271.453C162.581 271.256 163.038 271.201 163.476 271.296C164.008 271.466 164.319 271.998 164.655 272.445C165.536 273.615 168.301 275.391 169.869 274.56C171.272 273.818 170.224 271.486 171.988 270.29Z" fill="#3F3D56"/>
<path d="M118.88 366.279C118.88 366.279 115.283 388.891 130.187 386.836C130.187 386.836 137.895 385.808 138.923 386.836C139.951 387.864 177.982 381.183 183.121 375.529C183.121 375.529 189.288 373.474 192.372 376.557C195.455 379.641 226.291 382.724 217.04 373.474C207.789 364.223 193.399 362.167 193.399 362.167L173.87 363.195C173.87 363.195 163.592 366.279 157.425 363.195C151.257 360.112 133.784 361.139 133.784 361.139L118.88 366.279Z" fill="#FBBEBE"/>
<path d="M139.951 294.843C139.951 294.843 116.824 297.413 116.824 330.818V373.474C116.824 373.474 129.673 367.82 132.242 368.334C134.812 368.848 145.09 361.653 145.09 361.653C145.09 361.653 156.911 333.901 155.883 326.193C154.855 318.484 155.369 295.871 139.951 294.843Z" fill="#3F3D56"/>
<path d="M176.954 265.292C187.881 265.292 196.74 260.69 196.74 255.014C196.74 249.337 187.881 244.735 176.954 244.735C166.026 244.735 157.168 249.337 157.168 255.014C157.168 260.69 166.026 265.292 176.954 265.292Z" fill="#3F3D56"/>
<path d="M158.452 274.029C162.284 274.029 165.39 266.321 165.39 256.813C165.39 247.304 162.284 239.596 158.452 239.596C154.621 239.596 151.514 247.304 151.514 256.813C151.514 266.321 154.621 274.029 158.452 274.029Z" fill="#3F3D56"/>
</g>
<defs>
<clipPath id="clip0">
<rect width="902.289" height="674.064" fill="white"/>
</clipPath>
</defs>
</svg>
