<svg width="827" height="604" viewBox="0 0 827 604" fill="none" xmlns="http://www.w3.org/2000/svg">
<g clip-path="url(#clip0)">
<path d="M517.635 42.5H348.478C345.484 42.5 343.057 44.9272 343.057 47.9213V61.0787C343.057 64.0728 345.484 66.5 348.478 66.5H517.635C520.63 66.5 523.057 64.0728 523.057 61.0787V47.9213C523.057 44.9272 520.63 42.5 517.635 42.5Z" fill="#339F4C"/>
<path d="M777.635 0.5H326.478C323.484 0.5 321.057 2.92718 321.057 5.92126V526.079C321.057 529.073 323.484 531.5 326.478 531.5H777.635C780.63 531.5 783.057 529.073 783.057 526.079V5.92126C783.057 2.92718 780.63 0.5 777.635 0.5Z" stroke="#3F3D56" stroke-miterlimit="10"/>
<path d="M522.635 35.5H353.478C350.484 35.5 348.057 37.9272 348.057 40.9213V54.0787C348.057 57.0728 350.484 59.5 353.478 59.5H522.635C525.63 59.5 528.057 57.0728 528.057 54.0787V40.9213C528.057 37.9272 525.63 35.5 522.635 35.5Z" stroke="#3F3D56" stroke-miterlimit="10"/>
<path d="M722.135 123.5H371.978C368.984 123.5 366.557 125.927 366.557 128.921V130.079C366.557 133.073 368.984 135.5 371.978 135.5H722.135C725.13 135.5 727.557 133.073 727.557 130.079V128.921C727.557 125.927 725.13 123.5 722.135 123.5Z" fill="#F2F2F2"/>
<path d="M722.635 161.5H372.478C369.484 161.5 367.057 163.927 367.057 166.921V168.079C367.057 171.073 369.484 173.5 372.478 173.5H722.635C725.63 173.5 728.057 171.073 728.057 168.079V166.921C728.057 163.927 725.63 161.5 722.635 161.5Z" fill="#F2F2F2"/>
<path d="M723.135 199.5H372.978C369.984 199.5 367.557 201.927 367.557 204.921V206.079C367.557 209.073 369.984 211.5 372.978 211.5H723.135C726.13 211.5 728.557 209.073 728.557 206.079V204.921C728.557 201.927 726.13 199.5 723.135 199.5Z" fill="#F2F2F2"/>
<path d="M727.135 118.5H376.978C373.984 118.5 371.557 120.927 371.557 123.921V125.079C371.557 128.073 373.984 130.5 376.978 130.5H727.135C730.13 130.5 732.557 128.073 732.557 125.079V123.921C732.557 120.927 730.13 118.5 727.135 118.5Z" stroke="#3F3D56" stroke-miterlimit="10"/>
<path d="M727.635 156.5H377.478C374.484 156.5 372.057 158.927 372.057 161.921V163.079C372.057 166.073 374.484 168.5 377.478 168.5H727.635C730.63 168.5 733.057 166.073 733.057 163.079V161.921C733.057 158.927 730.63 156.5 727.635 156.5Z" stroke="#3F3D56" stroke-miterlimit="10"/>
<path d="M728.135 194.5H377.978C374.984 194.5 372.557 196.927 372.557 199.921V201.079C372.557 204.073 374.984 206.5 377.978 206.5H728.135C731.13 206.5 733.557 204.073 733.557 201.079V199.921C733.557 196.927 731.13 194.5 728.135 194.5Z" stroke="#3F3D56" stroke-miterlimit="10"/>
<path d="M609.691 308.5H487.423C486.132 308.5 484.895 309.013 483.982 309.925C483.069 310.838 482.557 312.076 482.557 313.366V329.634C482.557 330.924 483.069 332.162 483.982 333.075C484.895 333.987 486.132 334.5 487.423 334.5H494.057V417.134C494.057 418.424 494.569 419.662 495.482 420.575C496.395 421.487 497.632 422 498.923 422H591.191C592.481 422 593.719 421.487 594.632 420.575C595.544 419.662 596.057 418.424 596.057 417.134V334.5H609.691C610.981 334.5 612.219 333.987 613.132 333.075C614.044 332.162 614.557 330.924 614.557 329.634V313.366C614.557 312.076 614.044 310.838 613.132 309.925C612.219 309.013 610.981 308.5 609.691 308.5V308.5Z" fill="#F2F2F2"/>
<path d="M504.057 329.5H606.057V408.555C606.057 411.06 605.062 413.462 603.29 415.234C601.519 417.005 599.117 418 596.612 418H513.502C510.997 418 508.594 417.005 506.823 415.234C505.052 413.462 504.057 411.06 504.057 408.555V329.5Z" stroke="#3F3D56" stroke-miterlimit="10"/>
<path d="M613.864 303.5H497.25C493.001 303.5 489.557 306.944 489.557 311.193V321.807C489.557 326.056 493.001 329.5 497.25 329.5H613.864C618.113 329.5 621.557 326.056 621.557 321.807V311.193C621.557 306.944 618.113 303.5 613.864 303.5Z" stroke="#3F3D56" stroke-miterlimit="10"/>
<path d="M561.557 307H537.057V418H561.557V307Z" fill="#339F4C"/>
<path d="M565.557 303.5H545.557V417.5H565.557V303.5Z" stroke="#3F3D56" stroke-miterlimit="10"/>
<path d="M546.399 277.717C553.216 289.406 551.4 303.163 551.4 303.163C551.4 303.163 538.532 297.971 531.714 286.282C524.897 274.594 522.658 263.202 526.713 260.837C530.768 258.472 539.582 266.029 546.399 277.717Z" fill="#339F4C"/>
<path d="M562.402 277.717C555.585 289.406 557.4 303.163 557.4 303.163C557.4 303.163 570.269 297.971 577.086 286.282C583.904 274.594 586.143 263.202 582.088 260.837C578.033 258.472 569.219 266.029 562.402 277.717Z" fill="#339F4C"/>
<path d="M549.399 277.717C556.216 289.406 554.4 303.163 554.4 303.163C554.4 303.163 541.532 297.971 534.714 286.282C527.897 274.594 525.658 263.202 529.713 260.837C533.768 258.472 542.582 266.029 549.399 277.717Z" stroke="#3F3D56" stroke-miterlimit="10"/>
<path d="M559.402 277.717C552.585 289.406 554.4 303.163 554.4 303.163C554.4 303.163 567.269 297.971 574.086 286.282C580.904 274.594 583.143 263.202 579.088 260.837C575.033 258.472 566.219 266.029 559.402 277.717Z" stroke="#3F3D56" stroke-miterlimit="10"/>
<path d="M154.186 69.5917C154.186 69.5917 174.396 107.587 171.162 127.797C167.929 148.007 164.695 165.792 171.162 175.493C177.629 185.193 136.401 173.876 136.401 173.876V117.288L154.186 69.5917Z" fill="#FF6584"/>
<path d="M197.435 171.855C197.435 171.855 148.527 226.422 133.167 212.679C117.808 198.936 103.661 166.196 114.978 155.687C121.09 150.012 121.542 139.155 120.669 130.359C120.213 125.809 119.391 121.302 118.212 116.883C118.212 116.883 142.464 109.608 143.272 124.159C143.328 125.869 143.779 127.543 144.59 129.05C149.222 137.271 164.291 133.051 164.291 133.051L197.435 171.855Z" fill="#FBBEBE"/>
<path d="M161.057 135.477L164.291 133.051C177.207 132.379 190.126 134.303 202.286 138.71C221.687 145.986 255.64 152.453 265.341 150.028C275.042 147.603 298.486 142.752 298.486 142.752C298.486 142.752 324.355 132.243 330.014 145.177C335.672 158.112 295.252 158.112 295.252 158.112C295.252 158.112 266.554 169.834 246.344 168.217C226.134 166.6 199.861 175.897 187.735 166.196C175.608 156.495 161.057 135.477 161.057 135.477Z" fill="#FBBEBE"/>
<path d="M64.8571 444.287H43.0302L34.9462 460.455L45.4555 471.772C45.4555 471.772 65.6656 469.347 71.3244 462.88C76.9832 456.413 64.8571 444.287 64.8571 444.287Z" fill="#FBBEBE"/>
<path d="M61.5079 444.287C61.5079 444.287 70.516 440.245 64.8572 435.394C59.1983 430.544 54.3479 424.077 45.4555 430.544C36.563 437.011 -7.09076 470.156 0.993275 481.473C9.07732 492.791 11.5025 490.366 15.5445 487.941C19.5865 485.515 32.521 475.815 43.0302 475.815C53.5395 475.815 49.4975 462.072 45.4555 458.03C41.4134 453.988 58.1586 444.287 61.5079 444.287Z" fill="#3F3D56"/>
<path d="M145.697 547.762L136.805 563.122L145.697 572.823H170.758C170.758 572.823 162.674 556.655 165.908 549.379C169.141 542.104 145.697 547.762 145.697 547.762Z" fill="#FBBEBE"/>
<path d="M170.758 559.08C170.758 559.08 161.866 568.781 156.207 567.164C150.548 565.547 140.711 556.376 140.711 556.376C140.711 556.376 126.296 570.398 132.763 576.865C139.23 583.332 165.099 595.458 172.375 600.309C179.65 605.159 203.903 601.925 203.094 596.267C202.286 590.608 190.16 584.141 184.501 576.865C178.842 569.589 170.758 559.08 170.758 559.08Z" fill="#3F3D56"/>
<path d="M213.603 293.924C213.603 293.924 231.388 349.704 207.136 415.184C207.136 415.184 185.309 511.384 177.225 530.786C169.141 550.188 169.141 558.272 169.141 558.272C169.141 558.272 138.422 559.08 140.847 552.613C140.847 552.613 151.356 521.085 151.356 508.959C151.356 496.833 168.333 431.352 168.333 431.352L173.992 291.498L213.603 293.924Z" fill="#3F3D56"/>
<path opacity="0.1" d="M213.603 293.924C213.603 293.924 231.388 349.704 207.136 415.184C207.136 415.184 185.309 511.384 177.225 530.786C169.141 550.188 169.141 558.272 169.141 558.272C169.141 558.272 138.422 559.08 140.847 552.613C140.847 552.613 151.356 521.085 151.356 508.959C151.356 496.833 168.333 431.352 168.333 431.352L173.992 291.498L213.603 293.924Z" fill="black"/>
<path d="M209.561 297.966C209.561 297.966 209.561 323.835 192.585 335.152C192.585 335.152 205.519 425.694 189.351 442.67C173.183 459.646 146.506 452.371 146.506 452.371C146.506 452.371 102.044 454.796 68.8992 467.73C68.8992 467.73 43.0302 460.455 64.0487 441.862C64.0487 441.862 89.9177 435.394 98.0018 429.736C106.086 424.077 143.272 412.759 152.973 417.61C152.973 417.61 152.165 403.867 148.931 394.166C146.016 385.422 140.847 358.596 140.847 358.596C140.847 358.596 118.212 315.751 140.847 293.115C163.482 270.48 209.561 297.966 209.561 297.966Z" fill="#3F3D56"/>
<path opacity="0.1" d="M144.59 129.05C140.907 130.901 136.882 131.973 132.766 132.198C128.65 132.423 124.532 131.798 120.669 130.359C120.213 125.809 119.391 121.302 118.212 116.883C118.212 116.883 142.464 109.608 143.272 124.159C143.328 125.869 143.779 127.543 144.59 129.05Z" fill="black"/>
<path d="M131.146 129.818C147.666 129.818 161.057 116.426 161.057 99.9068C161.057 83.3875 147.666 69.9959 131.146 69.9959C114.627 69.9959 101.235 83.3875 101.235 99.9068C101.235 116.426 114.627 129.818 131.146 129.818Z" fill="#FBBEBE"/>
<path d="M129.529 211.467C129.529 211.467 163.482 235.719 148.123 261.588C132.763 287.456 137.613 302.008 137.613 302.008C137.613 302.008 166.716 302.008 176.417 308.475C186.118 314.942 216.837 303.625 216.837 303.625C216.837 303.625 221.687 271.288 215.22 255.929C208.753 240.569 205.519 216.317 207.945 211.466C210.37 206.616 216.837 183.981 201.477 171.046L192.733 166.349C192.733 166.349 198.244 189.64 161.057 175.088C161.057 175.088 152.973 222.784 129.529 211.467Z" fill="#339F4C"/>
<path d="M161.478 133.65L162.318 134.531L192.957 166.616L193.903 167.603L193.959 167.788L194.574 169.704L195.802 173.577L190.976 168.225L161.259 135.323L159.95 133.876L161.478 133.65Z" fill="#339F4C"/>
<path d="M163.623 177.547C163.623 177.547 138.422 155.687 120.637 161.346C102.852 167.004 129.258 215.101 134.648 215.709L136.805 215.509C136.805 215.509 103.661 175.088 122.254 162.962C122.254 162.962 145.697 165.388 163.482 179.939L163.623 177.547Z" fill="#339F4C"/>
<path d="M148.123 172.663L207.136 191.256L304.953 196.915C304.953 196.915 333.247 197.724 328.397 210.658C323.546 223.593 297.677 213.892 297.677 213.892L213.603 215.509C213.603 215.509 144.081 208.233 138.422 204.191C132.763 200.149 141.656 170.238 148.123 172.663Z" fill="#FBBEBE"/>
<path d="M122.254 124.967C122.254 124.967 119.02 118.5 125.487 111.224C128.78 107.52 131.653 99.6259 133.681 92.7677C134.614 89.6074 136.667 86.8956 139.456 85.1404C142.245 83.3852 145.578 82.707 148.831 83.2329C154.618 84.1671 160.721 84.4651 162.674 82.1219C166.716 77.2715 161.866 51.4026 130.338 57.0614C98.8101 62.7203 78.6 49.7858 78.6 80.5051C78.6 111.224 98.0017 120.117 84.2588 150.836C70.516 181.556 43.8387 184.789 59.1983 204.999C74.558 225.209 114.978 230.868 117.403 223.593C119.829 216.317 107.703 188.023 115.787 176.705C123.871 165.387 137.613 153.261 133.571 145.986C129.529 138.71 122.254 124.967 122.254 124.967Z" fill="#FF6584"/>
<path d="M26.5567 603H342.557" stroke="#3F3D56" stroke-miterlimit="10"/>
<path d="M758.777 165.434C761.806 166.535 765.05 166.918 768.252 166.552C771.455 166.186 774.528 165.081 777.231 163.324C779.933 161.567 782.191 159.207 783.825 156.429C785.46 153.651 786.427 150.531 786.65 147.316C786.874 144.1 786.347 140.877 785.112 137.9C783.877 134.922 781.967 132.273 779.534 130.159C777.1 128.046 774.209 126.527 771.088 125.722C767.967 124.916 764.701 124.847 761.549 125.519L762.07 136.231L757.001 127.051C752.027 129.388 748.185 133.604 746.318 138.773C745.655 140.584 745.252 142.479 745.121 144.403C744.801 148.917 745.961 153.412 748.425 157.207C750.889 161.002 754.524 163.89 758.777 165.434V165.434Z" fill="#57B894"/>
<path d="M783.854 289.678C782.065 280.567 789.818 272.491 797.475 267.241C805.133 261.991 814.08 256.833 816.693 247.924C820.448 235.12 809.263 223.394 800.557 213.282C794.099 205.778 788.552 197.535 784.034 188.725C782.223 185.193 780.558 181.5 780.082 177.559C779.395 171.883 781.219 166.236 783.056 160.822C789.175 142.788 795.718 124.904 802.684 107.172" stroke="#3F3D56" stroke-miterlimit="10"/>
<path d="M759.634 162.676C762.664 163.777 765.907 164.16 769.11 163.794C772.312 163.428 775.386 162.323 778.088 160.566C780.79 158.809 783.048 156.449 784.683 153.671C786.317 150.893 787.284 147.773 787.508 144.558C787.731 141.342 787.204 138.119 785.969 135.142C784.734 132.164 782.825 129.515 780.391 127.401C777.957 125.288 775.066 123.769 771.945 122.964C768.824 122.158 765.558 122.089 762.406 122.761L762.927 133.473L757.859 124.293C752.885 126.63 749.042 130.846 747.175 136.015C746.512 137.826 746.109 139.721 745.978 141.645C745.658 146.159 746.818 150.654 749.282 154.449C751.747 158.244 755.381 161.132 759.634 162.676V162.676Z" stroke="#3F3D56" stroke-miterlimit="10"/>
<path d="M781.311 103.473C782.5 100.192 784.495 97.2643 787.113 94.9579C789.731 92.6515 792.887 91.041 796.291 90.275L798.004 100.459L801.181 89.7631C805.592 89.8285 809.869 91.2941 813.392 93.9482C816.916 96.6024 819.506 100.308 820.786 104.529C822.067 108.751 821.973 113.27 820.518 117.435C819.063 121.6 816.322 125.194 812.691 127.7C809.059 130.205 804.726 131.491 800.316 131.373C795.906 131.255 791.647 129.739 788.155 127.043C784.663 124.347 782.119 120.611 780.888 116.374C779.658 112.138 779.806 107.62 781.311 103.473V103.473Z" fill="#57B894"/>
<path d="M782.453 99.7954C783.642 96.5152 785.638 93.587 788.255 91.2806C790.873 88.9742 794.03 87.3638 797.433 86.5978L799.147 96.7816L802.324 86.0859C806.735 86.1513 811.011 87.6169 814.535 90.271C818.059 92.9251 820.648 96.6305 821.929 100.852C823.21 105.074 823.116 109.593 821.661 113.758C820.206 117.923 817.464 121.517 813.833 124.022C810.202 126.528 805.869 127.814 801.459 127.696C797.049 127.578 792.79 126.062 789.298 123.366C785.806 120.67 783.261 116.934 782.031 112.697C780.801 108.46 780.949 103.942 782.453 99.7954V99.7954Z" stroke="#3F3D56" stroke-miterlimit="10"/>
<path d="M796.904 213.489C801.708 215.231 806.986 215.145 811.73 213.247C816.475 211.349 820.355 207.771 822.632 203.195C824.908 198.62 825.421 193.367 824.073 188.437C822.725 183.508 819.611 179.247 815.323 176.466L812.882 184.685L811.151 174.382C811.134 174.374 811.116 174.367 811.098 174.362C808.528 173.428 805.8 173.009 803.069 173.13C800.337 173.251 797.657 173.909 795.18 175.066C792.703 176.224 790.478 177.858 788.633 179.875C786.788 181.893 785.358 184.254 784.426 186.824C783.493 189.394 783.076 192.123 783.199 194.854C783.322 197.585 783.981 200.266 785.14 202.742C786.299 205.218 787.934 207.442 789.953 209.286C791.971 211.13 794.333 212.558 796.904 213.489H796.904Z" fill="#57B894"/>
<path d="M797.894 209.764C802.698 211.507 807.976 211.421 812.721 209.522C817.465 207.624 821.346 204.046 823.622 199.471C825.898 194.895 826.411 189.642 825.064 184.713C823.716 179.783 820.601 175.522 816.313 172.741L813.872 180.961L812.141 170.657C812.124 170.649 812.106 170.642 812.088 170.637C809.518 169.703 806.79 169.285 804.059 169.406C801.327 169.526 798.647 170.184 796.17 171.342C793.693 172.499 791.468 174.133 789.623 176.151C787.778 178.168 786.348 180.529 785.416 183.099C784.483 185.669 784.067 188.398 784.189 191.129C784.312 193.861 784.971 196.541 786.13 199.017C787.289 201.493 788.924 203.717 790.943 205.561C792.961 207.405 795.323 208.833 797.894 209.764H797.894Z" stroke="#3F3D56" stroke-miterlimit="10"/>
<path d="M775.237 248.051C776.063 252.752 778.48 257.025 782.083 260.155C785.686 263.284 790.255 265.08 795.024 265.241C799.794 265.401 804.474 263.917 808.279 261.037C812.084 258.157 814.783 254.056 815.923 249.422C817.064 244.788 816.576 239.903 814.542 235.585C812.508 231.268 809.052 227.782 804.752 225.711C800.453 223.64 795.572 223.11 790.928 224.21C786.285 225.31 782.161 227.974 779.248 231.754L788.52 245.711L775.85 238.303C774.868 241.456 774.658 244.8 775.237 248.051V248.051Z" fill="#57B894"/>
<path d="M776.094 245.294C776.92 249.994 779.337 254.267 782.94 257.397C786.543 260.526 791.112 262.322 795.881 262.483C800.651 262.643 805.331 261.159 809.136 258.279C812.941 255.399 815.64 251.298 816.78 246.664C817.921 242.03 817.433 237.145 815.399 232.827C813.365 228.51 809.909 225.024 805.609 222.953C801.31 220.882 796.429 220.352 791.785 221.452C787.142 222.553 783.018 225.216 780.105 228.996L789.377 242.953L776.708 235.545C775.725 238.698 775.515 242.042 776.094 245.294V245.294Z" stroke="#3F3D56" stroke-miterlimit="10"/>
</g>
<defs>
<clipPath id="clip0">
<rect width="826.305" height="603.5" fill="white"/>
</clipPath>
</defs>
</svg>
